<svg width="179" height="82" viewBox="0 0 179 82" fill="none" xmlns="http://www.w3.org/2000/svg">
<path d="M169.239 81.832V72.8622H171.238V75.281L170.885 74.5419C171.199 73.9708 171.652 73.5341 172.246 73.2317C172.851 72.9182 173.545 72.7614 174.329 72.7614C175.046 72.7614 175.684 72.9014 176.244 73.1813C176.815 73.4613 177.263 73.8924 177.588 74.4748C177.912 75.0459 178.075 75.785 178.075 76.692V81.832H175.975V76.9608C175.975 76.1657 175.785 75.5722 175.404 75.1802C175.034 74.7883 174.514 74.5923 173.842 74.5923C173.349 74.5923 172.912 74.6931 172.532 74.8947C172.151 75.0963 171.854 75.3986 171.641 75.8017C171.44 76.1937 171.339 76.692 171.339 77.2967V81.832H169.239Z" fill="#3A3A3A"/>
<path d="M162.445 81.9496C161.526 81.9496 160.709 81.7536 159.992 81.3617C159.275 80.9586 158.71 80.4098 158.296 79.7155C157.881 79.0213 157.674 78.2318 157.674 77.3471C157.674 76.4512 157.881 75.6618 158.296 74.9787C158.71 74.2844 159.275 73.7413 159.992 73.3493C160.709 72.9574 161.526 72.7614 162.445 72.7614C163.374 72.7614 164.197 72.9574 164.914 73.3493C165.642 73.7413 166.207 74.2788 166.61 74.9619C167.025 75.645 167.232 76.44 167.232 77.3471C167.232 78.2318 167.025 79.0213 166.61 79.7155C166.207 80.4098 165.642 80.9586 164.914 81.3617C164.197 81.7536 163.374 81.9496 162.445 81.9496ZM162.445 80.1523C162.96 80.1523 163.419 80.0403 163.822 79.8163C164.225 79.5924 164.539 79.2676 164.763 78.8421C164.998 78.4165 165.115 77.9182 165.115 77.3471C165.115 76.7648 164.998 76.2665 164.763 75.8521C164.539 75.4266 164.225 75.1019 163.822 74.8779C163.419 74.6539 162.965 74.5419 162.461 74.5419C161.946 74.5419 161.487 74.6539 161.084 74.8779C160.692 75.1019 160.378 75.4266 160.143 75.8521C159.908 76.2665 159.791 76.7648 159.791 77.3471C159.791 77.9182 159.908 78.4165 160.143 78.8421C160.378 79.2676 160.692 79.5924 161.084 79.8163C161.487 80.0403 161.941 80.1523 162.445 80.1523Z" fill="#3A3A3A"/>
<path d="M153.558 81.832V72.8622H155.657V81.832H153.558ZM154.616 71.384C154.224 71.384 153.899 71.2609 153.642 71.0145C153.395 70.7681 153.272 70.4714 153.272 70.1242C153.272 69.7659 153.395 69.4691 153.642 69.234C153.899 68.9876 154.224 68.8644 154.616 68.8644C155.008 68.8644 155.327 68.982 155.573 69.2172C155.831 69.4411 155.96 69.7267 155.96 70.0738C155.96 70.4434 155.836 70.7569 155.59 71.0145C155.344 71.2609 155.019 71.384 154.616 71.384Z" fill="#3A3A3A"/>
<path d="M147.684 81.9496C146.934 81.9496 146.212 81.8544 145.517 81.6641C144.834 81.4625 144.291 81.2217 143.888 80.9418L144.694 79.346C145.097 79.6036 145.579 79.8163 146.139 79.9843C146.699 80.1523 147.259 80.2363 147.819 80.2363C148.479 80.2363 148.955 80.1467 149.246 79.9675C149.549 79.7883 149.7 79.5476 149.7 79.2452C149.7 78.9989 149.599 78.8141 149.397 78.6909C149.196 78.5565 148.933 78.4557 148.608 78.3886C148.283 78.3214 147.919 78.2598 147.516 78.2038C147.124 78.1478 146.727 78.075 146.324 77.9854C145.932 77.8846 145.573 77.7447 145.249 77.5655C144.924 77.3751 144.661 77.1231 144.459 76.8096C144.257 76.496 144.157 76.0817 144.157 75.5666C144.157 74.9955 144.319 74.5027 144.644 74.0884C144.969 73.6629 145.422 73.3381 146.004 73.1142C146.598 72.879 147.298 72.7614 148.104 72.7614C148.709 72.7614 149.319 72.8286 149.935 72.963C150.551 73.0974 151.06 73.2877 151.464 73.5341L150.657 75.1299C150.232 74.8723 149.801 74.6987 149.364 74.6091C148.938 74.5083 148.513 74.458 148.087 74.458C147.449 74.458 146.973 74.5531 146.66 74.7435C146.357 74.9339 146.206 75.1746 146.206 75.4658C146.206 75.7346 146.307 75.9361 146.508 76.0705C146.71 76.2049 146.973 76.3113 147.298 76.3897C147.623 76.468 147.981 76.5352 148.373 76.5912C148.776 76.636 149.174 76.7088 149.565 76.8096C149.957 76.9104 150.316 77.0504 150.641 77.2295C150.976 77.3975 151.245 77.6383 151.447 77.9518C151.648 78.2654 151.749 78.6741 151.749 79.178C151.749 79.7379 151.581 80.2251 151.245 80.6394C150.92 81.0537 150.456 81.3785 149.851 81.6137C149.246 81.8376 148.524 81.9496 147.684 81.9496Z" fill="#3A3A3A"/>
<path d="M140.057 81.832V72.8622H142.157V81.832H140.057ZM141.116 71.384C140.724 71.384 140.399 71.2609 140.141 71.0145C139.895 70.7681 139.772 70.4714 139.772 70.1242C139.772 69.7659 139.895 69.4691 140.141 69.234C140.399 68.9876 140.724 68.8644 141.116 68.8644C141.507 68.8644 141.827 68.982 142.073 69.2172C142.331 69.4411 142.459 69.7267 142.459 70.0738C142.459 70.4434 142.336 70.7569 142.09 71.0145C141.843 71.2609 141.519 71.384 141.116 71.384Z" fill="#3A3A3A"/>
<path d="M131.663 81.832L126.523 70.0738H128.891L133.477 80.7066H132.116L136.752 70.0738H138.936L133.813 81.832H131.663Z" fill="#3A3A3A"/>
<path d="M116.288 81.832V72.8622H118.287V75.3314L118.052 74.6091C118.321 74.0044 118.741 73.5453 119.312 73.2317C119.894 72.9182 120.616 72.7614 121.478 72.7614V74.7603C121.389 74.7379 121.305 74.7267 121.227 74.7267C121.148 74.7155 121.07 74.7099 120.991 74.7099C120.196 74.7099 119.564 74.9451 119.093 75.4154C118.623 75.8745 118.388 76.5632 118.388 77.4815V81.832H116.288Z" fill="#3A3A3A"/>
<path d="M111.611 81.832V80.0179L111.494 79.6316V76.4568C111.494 75.8409 111.309 75.365 110.94 75.0291C110.57 74.6819 110.01 74.5083 109.26 74.5083C108.756 74.5083 108.258 74.5867 107.765 74.7435C107.283 74.9003 106.875 75.1187 106.539 75.3986L105.716 73.87C106.197 73.5005 106.768 73.2261 107.429 73.047C108.101 72.8566 108.795 72.7614 109.512 72.7614C110.811 72.7614 111.813 73.075 112.518 73.7021C113.235 74.318 113.594 75.2754 113.594 76.5744V81.832H111.611ZM108.789 81.9496C108.118 81.9496 107.53 81.8376 107.026 81.6137C106.522 81.3785 106.13 81.0593 105.85 80.6562C105.581 80.2419 105.447 79.7771 105.447 79.262C105.447 78.7581 105.564 78.3046 105.8 77.9014C106.046 77.4983 106.443 77.1791 106.992 76.944C107.541 76.7088 108.269 76.5912 109.176 76.5912H111.779V77.9854H109.327C108.61 77.9854 108.129 78.103 107.882 78.3382C107.636 78.5621 107.513 78.8421 107.513 79.178C107.513 79.5588 107.664 79.8611 107.966 80.0851C108.269 80.3091 108.689 80.421 109.226 80.421C109.741 80.421 110.2 80.3035 110.604 80.0683C111.018 79.8331 111.315 79.486 111.494 79.0269L111.847 80.2867C111.645 80.813 111.281 81.2217 110.755 81.5129C110.24 81.804 109.585 81.9496 108.789 81.9496Z" fill="#3A3A3A"/>
<path d="M100.334 81.832V72.3583C100.334 71.4176 100.608 70.6673 101.157 70.1074C101.717 69.5363 102.512 69.2507 103.542 69.2507C103.912 69.2507 104.259 69.2899 104.584 69.3683C104.92 69.4467 105.2 69.5699 105.424 69.7379L104.853 71.3168C104.696 71.1936 104.517 71.1041 104.315 71.0481C104.114 70.9809 103.906 70.9473 103.694 70.9473C103.257 70.9473 102.927 71.0705 102.703 71.3168C102.479 71.552 102.367 71.9103 102.367 72.3919V73.3997L102.434 74.3404V81.832H100.334ZM98.856 74.6091V72.9294H104.836V74.6091H98.856Z" fill="#3A3A3A"/>
<path d="M86.0054 81.832L91.2966 70.0738H93.4466L98.7546 81.832H96.4702L91.9181 71.2328H92.7915L88.2562 81.832H86.0054ZM88.441 79.1108L89.0289 77.3975H95.3783L95.9662 79.1108H88.441Z" fill="#3A3A3A"/>
<path d="M65.1414 81.832V72.8622H67.1403V75.2474L66.7875 74.5419C67.0899 73.9596 67.5266 73.5173 68.0977 73.2149C68.68 72.9126 69.3407 72.7614 70.0798 72.7614C70.9197 72.7614 71.6476 72.9686 72.2635 73.3829C72.8906 73.7973 73.3049 74.4244 73.5065 75.2642L72.6834 74.9787C72.9746 74.3068 73.4561 73.7693 74.128 73.3661C74.7999 72.963 75.5782 72.7614 76.4628 72.7614C77.1795 72.7614 77.8122 72.9014 78.3609 73.1813C78.9208 73.4613 79.3576 73.8924 79.6711 74.4748C79.9847 75.0459 80.1415 75.785 80.1415 76.692V81.832H78.0418V76.9608C78.0418 76.1657 77.8682 75.5722 77.5211 75.1802C77.1739 74.7883 76.6756 74.5923 76.0261 74.5923C75.567 74.5923 75.1582 74.6931 74.7999 74.8947C74.4527 75.0963 74.1784 75.393 73.9768 75.785C73.7864 76.1769 73.6912 76.6752 73.6912 77.2799V81.832H71.5916V76.9608C71.5916 76.1657 71.418 75.5722 71.0708 75.1802C70.7237 74.7883 70.2254 74.5923 69.5759 74.5923C69.1168 74.5923 68.708 74.6931 68.3497 74.8947C68.0025 75.0963 67.7282 75.393 67.5266 75.785C67.3362 76.1769 67.241 76.6752 67.241 77.2799V81.832H65.1414Z" fill="#3A3A3A"/>
<path d="M58.3462 81.9496C57.4279 81.9496 56.6104 81.7536 55.8937 81.3617C55.177 80.9586 54.6115 80.4098 54.1972 79.7155C53.7829 79.0213 53.5757 78.2318 53.5757 77.3471C53.5757 76.4512 53.7829 75.6618 54.1972 74.9787C54.6115 74.2844 55.177 73.7413 55.8937 73.3493C56.6104 72.9574 57.4279 72.7614 58.3462 72.7614C59.2756 72.7614 60.0987 72.9574 60.8154 73.3493C61.5433 73.7413 62.1088 74.2788 62.5119 74.9619C62.9263 75.645 63.1334 76.44 63.1334 77.3471C63.1334 78.2318 62.9263 79.0213 62.5119 79.7155C62.1088 80.4098 61.5433 80.9586 60.8154 81.3617C60.0987 81.7536 59.2756 81.9496 58.3462 81.9496ZM58.3462 80.1523C58.8613 80.1523 59.3204 80.0403 59.7235 79.8163C60.1267 79.5924 60.4402 79.2676 60.6642 78.8421C60.8994 78.4165 61.0169 77.9182 61.0169 77.3471C61.0169 76.7648 60.8994 76.2665 60.6642 75.8521C60.4402 75.4266 60.1267 75.1019 59.7235 74.8779C59.3204 74.6539 58.8669 74.5419 58.3629 74.5419C57.8478 74.5419 57.3887 74.6539 56.9856 74.8779C56.5936 75.1019 56.2801 75.4266 56.0449 75.8521C55.8097 76.2665 55.6922 76.7648 55.6922 77.3471C55.6922 77.9182 55.8097 78.4165 56.0449 78.8421C56.2801 79.2676 56.5936 79.5924 56.9856 79.8163C57.3887 80.0403 57.8422 80.1523 58.3462 80.1523Z" fill="#3A3A3A"/>
<path d="M47.4253 81.832V72.8622H49.4242V75.3314L49.189 74.6091C49.4578 74.0044 49.8777 73.5453 50.4488 73.2317C51.0311 72.9182 51.7534 72.7614 52.6157 72.7614V74.7603C52.5261 74.7379 52.4421 74.7267 52.3637 74.7267C52.2853 74.7155 52.207 74.7099 52.1286 74.7099C51.3335 74.7099 50.7008 74.9451 50.2305 75.4154C49.7601 75.8745 49.525 76.5632 49.525 77.4815V81.832H47.4253Z" fill="#3A3A3A"/>
<path d="M37.0957 81.832V70.0738H45.6792V71.9047H39.2794V81.832H37.0957ZM39.0946 77.3303V75.4826H44.9569V77.3303H39.0946Z" fill="#3A3A3A"/>
<path d="M26.0187 81.9496C25.0221 81.9496 24.1486 81.7536 23.3983 81.3617C22.6592 80.9586 22.0825 80.4098 21.6682 79.7155C21.265 79.0213 21.0635 78.2318 21.0635 77.3471C21.0635 76.4512 21.2594 75.6618 21.6514 74.9787C22.0545 74.2844 22.6032 73.7413 23.2975 73.3493C24.003 72.9574 24.8037 72.7614 25.6996 72.7614C26.573 72.7614 27.3513 72.9518 28.0344 73.3325C28.7175 73.7133 29.255 74.2508 29.647 74.9451C30.0389 75.6394 30.2349 76.4568 30.2349 77.3975C30.2349 77.4871 30.2293 77.5879 30.2181 77.6999C30.2181 77.8118 30.2125 77.9182 30.2013 78.019H22.7264V76.6248H29.0926L28.2696 77.0616C28.2808 76.5464 28.1744 76.0929 27.9504 75.701C27.7265 75.309 27.4185 75.0011 27.0266 74.7771C26.6458 74.5531 26.2035 74.4412 25.6996 74.4412C25.1844 74.4412 24.7309 74.5531 24.339 74.7771C23.9582 75.0011 23.6559 75.3146 23.4319 75.7178C23.2191 76.1097 23.1128 76.5744 23.1128 77.1119V77.4479C23.1128 77.9854 23.2359 78.4613 23.4823 78.8757C23.7287 79.29 24.0758 79.6092 24.5237 79.8331C24.9717 80.0571 25.4868 80.1691 26.0691 80.1691C26.573 80.1691 27.0266 80.0907 27.4297 79.9339C27.8328 79.7771 28.1912 79.5308 28.5047 79.1948L29.6302 80.4882C29.227 80.9586 28.7175 81.3225 28.1016 81.5801C27.4969 81.8264 26.8026 81.9496 26.0187 81.9496Z" fill="#3A3A3A"/>
<path d="M15.5697 81.9496C14.5731 81.9496 13.6996 81.7536 12.9493 81.3617C12.2103 80.9586 11.6335 80.4098 11.2192 79.7155C10.8161 79.0213 10.6145 78.2318 10.6145 77.3471C10.6145 76.4512 10.8105 75.6618 11.2024 74.9787C11.6056 74.2844 12.1543 73.7413 12.8486 73.3493C13.5541 72.9574 14.3547 72.7614 15.2506 72.7614C16.1241 72.7614 16.9023 72.9518 17.5854 73.3325C18.2685 73.7133 18.806 74.2508 19.198 74.9451C19.5899 75.6394 19.7859 76.4568 19.7859 77.3975C19.7859 77.4871 19.7803 77.5879 19.7691 77.6999C19.7691 77.8118 19.7635 77.9182 19.7523 78.019H12.2774V76.6248H18.6437L17.8206 77.0616C17.8318 76.5464 17.7254 76.0929 17.5014 75.701C17.2775 75.309 16.9695 75.0011 16.5776 74.7771C16.1968 74.5531 15.7545 74.4412 15.2506 74.4412C14.7355 74.4412 14.2819 74.5531 13.89 74.7771C13.5093 75.0011 13.2069 75.3146 12.9829 75.7178C12.7702 76.1097 12.6638 76.5744 12.6638 77.1119V77.4479C12.6638 77.9854 12.787 78.4613 13.0333 78.8757C13.2797 79.29 13.6268 79.6092 14.0748 79.8331C14.5227 80.0571 15.0378 80.1691 15.6201 80.1691C16.1241 80.1691 16.5776 80.0907 16.9807 79.9339C17.3839 79.7771 17.7422 79.5308 18.0558 79.1948L19.1812 80.4882C18.7781 80.9586 18.2685 81.3225 17.6526 81.5801C17.0479 81.8264 16.3536 81.9496 15.5697 81.9496Z" fill="#3A3A3A"/>
<path d="M4.63609 82C3.71783 82 2.83876 81.8712 1.99889 81.6137C1.15902 81.3449 0.492725 81.0034 0 80.589L0.755884 78.8925C1.22621 79.262 1.80852 79.57 2.50282 79.8163C3.19711 80.0627 3.9082 80.1859 4.63609 80.1859C5.252 80.1859 5.75032 80.1187 6.13106 79.9843C6.5118 79.8499 6.79176 79.6708 6.97093 79.4468C7.1501 79.2116 7.23969 78.9485 7.23969 78.6573C7.23969 78.299 7.11091 78.0134 6.85335 77.8006C6.59579 77.5767 6.25984 77.4031 5.8455 77.2799C5.44237 77.1455 4.98884 77.0224 4.48491 76.9104C3.99219 76.7984 3.49386 76.6696 2.98994 76.524C2.49722 76.3673 2.04369 76.1713 1.62935 75.9361C1.22621 75.6898 0.895863 75.365 0.638302 74.9619C0.380742 74.5587 0.251961 74.0436 0.251961 73.4165C0.251961 72.7782 0.419936 72.1959 0.755884 71.6696C1.10303 71.1321 1.62375 70.7065 2.31804 70.393C3.02354 70.0682 3.9138 69.9059 4.98884 69.9059C5.69433 69.9059 6.39422 69.9954 7.08851 70.1746C7.78281 70.3538 8.38751 70.6113 8.90263 70.9473L8.21394 72.6438C7.68762 72.3303 7.14451 72.1007 6.58459 71.9551C6.02468 71.7984 5.48716 71.72 4.97204 71.72C4.36733 71.72 3.87461 71.7928 3.49386 71.9383C3.12432 72.0839 2.84996 72.2743 2.67079 72.5095C2.50282 72.7446 2.41883 73.0134 2.41883 73.3157C2.41883 73.6741 2.54201 73.9652 2.78837 74.1892C3.04593 74.402 3.37628 74.5699 3.77942 74.6931C4.19376 74.8163 4.65289 74.9395 5.15681 75.0627C5.66073 75.1746 6.15906 75.3034 6.65178 75.449C7.1557 75.5946 7.60923 75.785 8.01237 76.0201C8.42671 76.2553 8.75706 76.5744 9.00342 76.9776C9.26098 77.3807 9.38976 77.8902 9.38976 78.5061C9.38976 79.1332 9.21619 79.7156 8.86904 80.2531C8.53309 80.7794 8.01237 81.2049 7.30688 81.5297C6.60139 81.8432 5.71112 82 4.63609 82Z" fill="#3A3A3A"/>
<path d="M0 59.3583L29.887 29.6791L0 3.8147e-06H59.774L89.661 29.6791L59.774 59.3583H0Z" fill="#3A3A3A"/>
<path fill-rule="evenodd" clip-rule="evenodd" d="M178.075 29.6791L158.314 10.0553C151.563 3.35257 142.715 3.8147e-06 133.868 3.8147e-06C125.021 3.8147e-06 116.172 3.35257 109.422 10.0553L89.661 29.6791L109.422 49.303C116.172 56.0057 125.021 59.3583 133.868 59.3583C142.715 59.3583 151.563 56.0057 158.314 49.303L178.075 29.6791ZM151.447 29.6791L144.999 36.0812C142.026 39.0341 138.073 40.6603 133.868 40.6603C129.663 40.6603 125.709 39.0341 122.737 36.0812L116.288 29.6791L122.737 23.2771C125.709 20.3242 129.663 18.698 133.868 18.698C138.073 18.698 142.026 20.3242 144.999 23.2771L151.447 29.6791Z" fill="#3A3A3A"/>
</svg>
