<svg width="184" height="18" viewBox="0 0 184 18" fill="none" xmlns="http://www.w3.org/2000/svg">
<path d="M171.078 17.7297V5.60952H174.435V8.96621L173.804 7.95245C174.24 7.14143 174.863 6.51815 175.674 6.08261C176.485 5.64706 177.409 5.42929 178.445 5.42929C179.406 5.42929 180.262 5.62453 181.013 6.01502C181.779 6.39049 182.38 6.97622 182.815 7.77222C183.251 8.5532 183.469 9.55946 183.469 10.791V17.7297H179.954V11.3317C179.954 10.3555 179.736 9.63455 179.301 9.16897C178.88 8.70339 178.28 8.47059 177.499 8.47059C176.943 8.47059 176.44 8.59074 175.989 8.83104C175.554 9.05633 175.208 9.40927 174.953 9.88987C174.713 10.3705 174.593 10.9862 174.593 11.7372V17.7297H171.078Z" fill="#3A3A3A"/>
<path d="M162.083 17.9099C160.792 17.9099 159.643 17.6396 158.637 17.0989C157.645 16.5582 156.857 15.8223 156.271 14.8911C155.7 13.9449 155.415 12.8711 155.415 11.6696C155.415 10.4531 155.7 9.37923 156.271 8.44807C156.857 7.50188 157.645 6.76596 158.637 6.2403C159.643 5.69963 160.792 5.42929 162.083 5.42929C163.36 5.42929 164.501 5.69963 165.508 6.2403C166.514 6.76596 167.302 7.49437 167.873 8.42554C168.444 9.3567 168.729 10.4381 168.729 11.6696C168.729 12.8711 168.444 13.9449 167.873 14.8911C167.302 15.8223 166.514 16.5582 165.508 17.0989C164.501 17.6396 163.36 17.9099 162.083 17.9099ZM162.083 15.0263C162.669 15.0263 163.195 14.8911 163.66 14.6208C164.126 14.3504 164.494 13.9675 164.764 13.4719C165.035 12.9612 165.17 12.3605 165.17 11.6696C165.17 10.9637 165.035 10.363 164.764 9.86734C164.494 9.37172 164.126 8.98874 163.66 8.7184C163.195 8.44807 162.669 8.3129 162.083 8.3129C161.498 8.3129 160.972 8.44807 160.506 8.7184C160.041 8.98874 159.665 9.37172 159.38 9.86734C159.11 10.363 158.974 10.9637 158.974 11.6696C158.974 12.3605 159.11 12.9612 159.38 13.4719C159.665 13.9675 160.041 14.3504 160.506 14.6208C160.972 14.8911 161.498 15.0263 162.083 15.0263Z" fill="#3A3A3A"/>
<path d="M149.54 17.7297V5.60952H153.054V17.7297H149.54ZM151.297 3.9199C150.651 3.9199 150.126 3.73217 149.72 3.3567C149.315 2.98123 149.112 2.51565 149.112 1.95995C149.112 1.40426 149.315 0.938674 149.72 0.563205C150.126 0.187735 150.651 0 151.297 0C151.943 0 152.469 0.180226 152.874 0.540677C153.28 0.886109 153.483 1.33667 153.483 1.89237C153.483 2.4781 153.28 2.96621 152.874 3.3567C152.484 3.73217 151.958 3.9199 151.297 3.9199Z" fill="#3A3A3A"/>
<path d="M141.649 17.9099C140.613 17.9099 139.614 17.7898 138.653 17.5494C137.707 17.2941 136.956 16.9787 136.4 16.6033L137.572 14.0801C138.128 14.4255 138.781 14.7109 139.532 14.9362C140.298 15.1464 141.049 15.2516 141.785 15.2516C142.596 15.2516 143.166 15.154 143.497 14.9587C143.842 14.7635 144.015 14.4931 144.015 14.1477C144.015 13.8623 143.88 13.6521 143.609 13.5169C143.354 13.3667 143.009 13.2541 142.573 13.179C142.138 13.1039 141.657 13.0288 141.131 12.9537C140.621 12.8786 140.103 12.781 139.577 12.6608C139.051 12.5257 138.571 12.3304 138.135 12.0751C137.7 11.8198 137.347 11.4744 137.076 11.0388C136.821 10.6033 136.693 10.0401 136.693 9.34919C136.693 8.58323 136.911 7.90739 137.347 7.32166C137.797 6.73592 138.443 6.27785 139.284 5.94744C140.125 5.60201 141.131 5.42929 142.303 5.42929C143.129 5.42929 143.97 5.5194 144.826 5.69963C145.682 5.87985 146.395 6.14268 146.966 6.48812L145.795 8.98874C145.209 8.64331 144.616 8.41052 144.015 8.29037C143.429 8.1552 142.858 8.08761 142.303 8.08761C141.522 8.08761 140.951 8.19275 140.591 8.40301C140.23 8.61327 140.05 8.88361 140.05 9.21402C140.05 9.5144 140.178 9.73968 140.433 9.88987C140.703 10.0401 141.056 10.1602 141.492 10.2503C141.927 10.3404 142.4 10.423 142.911 10.4981C143.437 10.5582 143.962 10.6558 144.488 10.791C145.014 10.9262 145.487 11.1214 145.907 11.3767C146.343 11.617 146.696 11.955 146.966 12.3905C147.236 12.811 147.372 13.3667 147.372 14.0576C147.372 14.8085 147.146 15.4769 146.696 16.0626C146.245 16.6333 145.592 17.0839 144.736 17.4143C143.895 17.7447 142.866 17.9099 141.649 17.9099Z" fill="#3A3A3A"/>
<path d="M130.796 17.7297V5.60952H134.31V17.7297H130.796ZM132.553 3.9199C131.907 3.9199 131.382 3.73217 130.976 3.3567C130.571 2.98123 130.368 2.51565 130.368 1.95995C130.368 1.40426 130.571 0.938674 130.976 0.563205C131.382 0.187735 131.907 0 132.553 0C133.199 0 133.725 0.180226 134.13 0.540677C134.536 0.886109 134.738 1.33667 134.738 1.89237C134.738 2.4781 134.536 2.96621 134.13 3.3567C133.74 3.73217 133.214 3.9199 132.553 3.9199Z" fill="#3A3A3A"/>
<path d="M119.077 17.7297L112.273 1.95996H116.216L122.163 15.9274H119.843L125.88 1.95996H129.507L122.681 17.7297H119.077Z" fill="#3A3A3A"/>
<path d="M110.389 17.9099C109.788 17.9099 109.27 17.7071 108.834 17.3016C108.414 16.8811 108.204 16.3479 108.204 15.7021C108.204 15.0563 108.414 14.5382 108.834 14.1477C109.27 13.7422 109.788 13.5394 110.389 13.5394C111.005 13.5394 111.523 13.7422 111.943 14.1477C112.364 14.5382 112.574 15.0563 112.574 15.7021C112.574 16.3479 112.364 16.8811 111.943 17.3016C111.523 17.7071 111.005 17.9099 110.389 17.9099Z" fill="#3A3A3A"/>
<path d="M89.261 17.7297L96.2898 1.95996H99.8943L106.946 17.7297H103.116L97.3486 3.80727H98.7904L93.0007 17.7297H89.261ZM92.7754 14.3505L93.7441 11.5795H101.854L102.845 14.3505H92.7754Z" fill="#3A3A3A"/>
<path d="M77.6055 17.7297V1.95996H89.5229V4.88862H81.255V17.7297H77.6055ZM80.9847 11.985V9.05634H88.5542V11.985H80.9847Z" fill="#3A3A3A"/>
<path d="M68.4205 18C67.159 18 65.9499 17.8348 64.7935 17.5044C63.637 17.159 62.7059 16.7159 62 16.1752L63.239 13.4268C63.9149 13.9074 64.7109 14.3054 65.627 14.6208C66.5582 14.9212 67.4969 15.0713 68.4431 15.0713C69.164 15.0713 69.7422 15.0038 70.1777 14.8686C70.6283 14.7184 70.9587 14.5156 71.169 14.2603C71.3792 14.005 71.4844 13.7121 71.4844 13.3817C71.4844 12.9612 71.3192 12.6308 70.9887 12.3905C70.6583 12.1352 70.2228 11.9324 69.6821 11.7822C69.1414 11.617 68.5407 11.4668 67.8799 11.3317C67.234 11.1815 66.5807 11.0013 65.9199 10.791C65.2741 10.5807 64.6809 10.3104 64.1402 9.97997C63.5995 9.64956 63.1564 9.21402 62.811 8.67334C62.4806 8.13266 62.3154 7.4418 62.3154 6.60075C62.3154 5.69962 62.5557 4.8811 63.0363 4.14518C63.5319 3.39424 64.2678 2.80099 65.2441 2.36545C66.2353 1.91489 67.4743 1.68961 68.9612 1.68961C69.9524 1.68961 70.9287 1.80976 71.8899 2.05006C72.8511 2.27534 73.6996 2.62077 74.4356 3.08635L73.3091 5.85732C72.5732 5.43679 71.8373 5.12891 71.1014 4.93366C70.3655 4.7234 69.6446 4.61827 68.9387 4.61827C68.2328 4.61827 67.6546 4.70087 67.204 4.86608C66.7534 5.03129 66.4305 5.24906 66.2353 5.51939C66.0401 5.77471 65.9424 6.07509 65.9424 6.42052C65.9424 6.82603 66.1076 7.15644 66.4381 7.41176C66.7685 7.65206 67.204 7.84731 67.7447 7.9975C68.2854 8.14768 68.8786 8.29787 69.5244 8.44806C70.1852 8.59825 70.8386 8.77096 71.4844 8.96621C72.1452 9.16145 72.7459 9.42428 73.2866 9.75469C73.8273 10.0851 74.2628 10.5207 74.5933 11.0613C74.9387 11.602 75.1114 12.2854 75.1114 13.1114C75.1114 13.9975 74.8636 14.8085 74.368 15.5444C73.8723 16.2804 73.1289 16.8736 72.1377 17.3242C71.1615 17.7747 69.9224 18 68.4205 18Z" fill="#3A3A3A"/>
<path d="M0 18L9.06303 9L0 4.62073e-08H18.1261L27.1891 9L18.1261 18H0Z" fill="#3A3A3A"/>
<path fill-rule="evenodd" clip-rule="evenodd" d="M54 9L48.0075 3.04921C45.9604 1.01664 43.2775 4.62073e-08 40.5945 4.62073e-08C37.9116 4.62073e-08 35.2284 1.01664 33.1816 3.04921L27.1891 9L33.1816 14.9508C35.2284 16.9834 37.9116 18 40.5945 18C43.2775 18 45.9604 16.9834 48.0075 14.9508L54 9ZM45.9254 9L43.97 10.9414C43.0683 11.8368 41.8697 12.33 40.5945 12.33C39.3194 12.33 38.1204 11.8368 37.219 10.9414L35.2637 9L37.219 7.05861C38.1204 6.16317 39.3194 5.67004 40.5945 5.67004C41.8697 5.67004 43.0683 6.16317 43.97 7.05861L45.9254 9Z" fill="#3A3A3A"/>
</svg>
